<svg width="40" height="40" viewBox="0 0 40 40" fill="none" xmlns="http://www.w3.org/2000/svg">
<rect width="40" height="40" fill="#00ADDB"/>
<path d="M19.9874 8.00856C26.6106 8.00367 31.984 13.3687 31.9894 19.9919C31.9948 26.6152 26.6292 31.9885 20.006 31.9934C13.3828 31.9983 8.00942 26.6337 8.00453 20.01V20.0012C8.00062 13.3805 13.3671 8.01149 19.9874 8.00856Z" fill="#FF3366"/>
<path d="M19.9834 13.6618C21.2368 13.661 22.4622 14.0319 23.5048 14.7276C24.5474 15.4233 25.3603 16.4126 25.8407 17.5702C26.321 18.7279 26.4473 20.0021 26.2035 21.2315C25.9598 22.461 25.3569 23.5906 24.4712 24.4774C23.5854 25.3642 22.4566 25.9685 21.2275 26.2138C19.9983 26.459 18.724 26.3343 17.5657 25.8554C16.4074 25.3765 15.4172 24.5648 14.7202 23.5231C14.0232 22.4813 13.6508 21.2563 13.65 20.0029V19.999C13.6497 18.3189 14.3168 16.7074 15.5045 15.519C16.6922 14.3306 18.3032 13.6625 19.9834 13.6618Z" fill="#00ADDB"/>
<path d="M29.0007 20C29.004 18.1253 28.4207 16.2964 27.3325 14.7699L28.5163 13.5845C27.9111 12.7783 27.1951 12.0615 26.3896 11.4553L25.2057 12.6436C23.6824 11.5622 21.8608 10.9809 19.9927 10.9801C18.1246 10.9792 16.3025 11.5588 14.7782 12.6387L13.5904 11.4504C12.7841 12.056 12.0673 12.7723 11.4612 13.5782L12.646 14.764C11.5597 16.2905 10.9751 18.1172 10.9733 19.9908C10.9714 21.8644 11.5524 23.6922 12.6358 25.2209L11.4558 26.4018C12.0617 27.2073 12.778 27.9236 13.5835 28.5295L14.762 27.3501C16.2891 28.4367 18.117 29.0202 19.9912 29.0194C21.8655 29.0185 23.6928 28.4333 25.2189 27.3452L26.3974 28.5242C27.2025 27.9171 27.918 27.1995 28.5227 26.3925L27.3432 25.2126C28.4245 23.6892 29.004 21.8666 29.0012 19.9985L29.0007 20ZM13.653 19.9985C13.6544 18.7464 14.027 17.5227 14.7237 16.4823C15.4204 15.4418 16.4099 14.6313 17.5672 14.153C18.7244 13.6748 19.9975 13.5504 21.2254 13.7955C22.4534 14.0406 23.5811 14.6442 24.4661 15.5301C25.3511 16.416 25.9535 17.5443 26.1974 18.7725C26.4413 20.0007 26.3156 21.2736 25.8362 22.4304C25.3568 23.5871 24.5453 24.5758 23.5041 25.2715C22.463 25.9672 21.239 26.3386 19.9868 26.3387C19.1546 26.3387 18.3306 26.1747 17.5619 25.8561C16.7932 25.5374 16.0948 25.0704 15.5067 24.4816C14.9186 23.8929 14.4523 23.194 14.1345 22.4249C13.8166 21.6558 13.6535 20.8317 13.6544 19.9995" fill="#FFD065"/>
<path d="M19.9834 16.9939C20.5785 16.9933 21.1603 17.1692 21.6554 17.4993C22.1505 17.8295 22.5366 18.299 22.7648 18.8485C22.993 19.3981 23.0532 20.003 22.9376 20.5867C22.8221 21.1704 22.536 21.7068 22.1156 22.1279C21.6952 22.5491 21.1594 22.8361 20.5758 22.9527C19.9923 23.0693 19.3873 23.0102 18.8374 22.783C18.2874 22.5557 17.8172 22.1705 17.4862 21.676C17.1552 21.1815 16.9783 20.5999 16.9778 20.0049C16.9772 19.6098 17.0545 19.2185 17.2052 18.8533C17.356 18.4881 17.5772 18.1562 17.8563 17.8766C18.1354 17.5969 18.4669 17.3751 18.8318 17.2236C19.1967 17.0721 19.5878 16.9941 19.9829 16.9939" fill="#FFD065"/>
</svg>
