<svg version="1.1" id="Lager_1" xmlns="http://www.w3.org/2000/svg" xmlns:xlink="http://www.w3.org/1999/xlink" x="0px" y="0px"
	 viewBox="0 0 1641.26 297.79" style="enable-background:new 0 0 1641.26 297.79;" xml:space="preserve">
<style type="text/css">
	.st0{fill:#ffffff;}
</style>
<g>
	<path class="st0" d="M180.8,159.79c-1.13-2.29-2.71-5.61-5.17-8.71c-1.6-2.02-3.86-3.41-6.57-3.41c-4.26,0-7.17,3.09-7.17,7.4
		c0,1.48,0.5,2.81,1.13,4.06c0.35,0.68,1,2.02,1.35,2.72c0.23,0.45,0.22,0.9-0.17,1.11c-0.45,0.26-0.88,0.03-1.12-0.36
		c-0.37-0.61-1.52-2.45-1.52-2.45c-1.39-2.16-3.73-3.74-6.49-3.74c-4.36,0-7.75,3.61-7.75,7.94c0,1.24,0.31,2.41,0.81,3.45
		c0.2,0.42,0.6,1.26,0.8,1.68c0.22,0.46,0.23,0.91-0.16,1.15c-0.41,0.25-0.85,0.01-1.09-0.36c-0.3-0.46-0.9-1.36-1.22-1.81
		c-1.31-1.83-3.4-2.93-5.74-2.93c-3.88,0-7.09,2.92-7.09,7.37c0,1.39,0.6,3.13,1.23,4.54c3.15,6.99,4.69,13.8,4.69,24.27
		c0,24.71-19.32,44.73-42.68,44.73c-30.94,0-42.44-23.8-44.65-30.88c-0.26-0.85-1.17-1.32-2.02-1.06L4.19,228.68
		c-0.86,0.26-1.35,1.17-1.08,2.02c10.16,32.75,42.56,67.09,93.24,67.09c42,0,76.9-28.14,89.7-66.11
		C194.04,207.97,191.58,181.6,180.8,159.79z"/>
	<g>
		<path class="st0" d="M95.38,153.36c-2.48,0-4.47-2.01-4.47-4.46c0-2.48,2.01-4.47,4.46-4.47c2.48,0,4.47,2.01,4.47,4.46
			C99.84,151.37,97.84,153.36,95.38,153.36z"/>
	</g>
	<g>
		<path class="st0" d="M95.38,115.09c-2.48,0-4.47-2.01-4.47-4.46c0-2.48,2.01-4.47,4.46-4.47c2.48,0,4.47,2.01,4.47,4.46
			C99.84,113.1,97.84,115.09,95.38,115.09z"/>
	</g>
	<g>
		<path class="st0" d="M95.38,134.23c-2.48,0-4.47-2.01-4.47-4.46c0-2.48,2.01-4.47,4.46-4.47c2.48,0,4.47,2.01,4.47,4.46
			C99.84,132.23,97.84,134.23,95.38,134.23z"/>
	</g>
	<path class="st0" d="M130.56,155.81c-0.95-0.99-2.23-2.04-3.36-2.82c-2.62-1.82-5.04-3.32-7.93-4.65c-1.85-0.85-2.72-1.3-5.01-1.94
		c-1.7-0.48-3.32-0.69-4.85-0.06c-2.4,0.99-3.72,3.54-2.95,6.3c0.59,2.12,2.3,2.96,4.13,3.84c2.94,1.41,4.39,2.16,6.89,3.7
		c1.95,1.2,3.6,2.3,5.58,3.71c2.34,1.67,5.31,1.95,7.4,0.09C132.83,161.89,132.87,158.21,130.56,155.81z"/>
	<path class="st0" d="M146.53,144.64c-3-3.07-6.39-5.71-9.67-7.39c-1.09-0.56-1.9-0.96-3.34-1.3c-2.11-0.5-4.32,0.15-5.7,1.82
		c-1.5,1.81-1.65,4.3-0.46,6.33c1,1.7,2.31,2.55,3.85,3.67c2.31,1.68,3.92,2.95,6.08,4.78c1.41,1.19,2.6,2.47,4.53,2.73
		c2.5,0.34,5.01-0.97,6.15-3.22C149.21,149.61,148.45,146.59,146.53,144.64z"/>
	<path class="st0" d="M118.56,128.36c-1.35-0.58-2.46-1.04-4.39-1.53c-1.43-0.37-3.13-0.57-4.61-0.23
		c-3.35,0.79-4.93,4.81-3.02,7.67c0.78,1.16,1.79,1.66,3.21,2.16c1.14,0.4,1.98,0.71,3.33,1.2c1,0.37,2.16,0.83,3.08,1
		c1.65,0.32,3.39-0.21,4.6-1.38C123.61,134.51,122.65,130.11,118.56,128.36z"/>
	<path class="st0" d="M113.93,108c-0.74-0.21-1.67-0.41-2.59-0.48c-1.15-0.09-2.46,0.06-3.51,0.77c-2.05,1.38-2.74,4.18-1.56,6.36
		c0.57,1.06,1.54,1.88,2.68,2.28c1.04,0.36,2.24,0.75,3.33,0.87c2.43,0.28,4.74-1.32,5.36-3.68
		C118.35,111.37,116.66,108.76,113.93,108z"/>
	<path class="st0" d="M137.8,116.02c-1.3-0.81-2.45-1.42-3.89-1.96c-1.57-0.59-3.09-1.04-4.6-1.14c-3.56-0.24-6.47,3.04-5.83,6.54
		c0.31,1.7,1.44,3.2,2.98,3.97c1.22,0.61,2.16,1.08,3.48,1.75c1.29,0.65,2.63,1.46,4.03,1.83c1.71,0.46,3.57,0.08,4.96-1
		C142.26,123.44,141.56,118.36,137.8,116.02z"/>
	<path class="st0" d="M163.15,134.64c-1.34-1.65-2.68-3.01-4.11-4.27c-1.53-1.34-2.57-2.19-4.39-3.31
		c-1.57-0.97-3.39-1.49-5.27-1.13c-1.92,0.36-3.56,1.73-4.27,3.55c-0.79,2.03-0.32,4.39,1.16,5.97c1.1,1.17,2.09,1.94,3.3,3
		c1.51,1.33,2.96,2.65,4.37,4.09c1.27,1.3,2.66,2.29,4.56,2.36c2.27,0.08,4.44-1.2,5.46-3.23
		C165.11,139.43,164.89,136.78,163.15,134.64z"/>
	<path class="st0" d="M9.96,138c1.13,2.29,2.71,5.61,5.17,8.71c1.6,2.02,3.86,3.41,6.57,3.41c4.26,0,7.17-3.09,7.17-7.4
		c0-1.48-0.5-2.81-1.13-4.06c-0.35-0.68-1-2.02-1.35-2.72c-0.23-0.45-0.22-0.9,0.17-1.11c0.45-0.26,0.88-0.03,1.12,0.36
		c0.37,0.61,1.52,2.45,1.52,2.45c1.39,2.16,3.73,3.74,6.49,3.74c4.36,0,7.75-3.61,7.75-7.94c0-1.24-0.31-2.41-0.81-3.45
		c-0.2-0.42-0.6-1.26-0.8-1.68c-0.22-0.46-0.23-0.91,0.16-1.15c0.41-0.25,0.85-0.01,1.09,0.36c0.3,0.46,0.9,1.36,1.22,1.81
		c1.31,1.83,3.4,2.93,5.74,2.93c3.88,0,7.09-2.92,7.09-7.37c0-1.39-0.6-3.13-1.23-4.54c-3.15-6.99-4.69-13.8-4.69-24.27
		c0-24.71,19.32-44.73,42.68-44.73c30.94,0,42.44,23.8,44.65,30.88c0.26,0.85,1.17,1.32,2.02,1.06l46.01-14.16
		c0.86-0.26,1.35-1.17,1.08-2.02C177.49,34.34,145.09,0,94.41,0c-42,0-76.9,28.14-89.7,66.11C-3.28,89.82-0.82,116.18,9.96,138z"/>
	<g>
		<path class="st0" d="M95.38,182.7c2.48,0,4.47,2.01,4.47,4.46c0,2.48-2.01,4.47-4.46,4.47c-2.48,0-4.47-2.01-4.47-4.46
			C90.91,184.69,92.92,182.7,95.38,182.7z"/>
	</g>
	<g>
		<path class="st0" d="M95.38,163.56c2.48,0,4.47,2.01,4.47,4.46c0,2.48-2.01,4.47-4.46,4.47c-2.48,0-4.47-2.01-4.47-4.46
			C90.91,165.55,92.92,163.56,95.38,163.56z"/>
	</g>
	<path class="st0" d="M60.19,141.98c0.95,0.99,2.23,2.04,3.36,2.82c2.62,1.82,5.04,3.32,7.93,4.65c1.85,0.85,2.72,1.3,5.01,1.94
		c1.7,0.48,3.32,0.69,4.85,0.06c2.4-0.99,3.72-3.54,2.95-6.3c-0.59-2.12-2.3-2.96-4.13-3.84c-2.94-1.41-4.39-2.16-6.89-3.7
		c-1.95-1.2-3.6-2.3-5.58-3.71c-2.34-1.67-5.31-1.95-7.4-0.09C57.92,135.9,57.89,139.58,60.19,141.98z"/>
	<path class="st0" d="M44.22,153.15c3,3.07,6.39,5.71,9.67,7.39c1.09,0.56,1.9,0.96,3.34,1.3c2.11,0.5,4.32-0.15,5.7-1.82
		c1.5-1.81,1.65-4.3,0.46-6.33c-1-1.7-2.31-2.55-3.85-3.67c-2.31-1.68-3.92-2.95-6.08-4.78c-1.41-1.19-2.6-2.47-4.53-2.73
		c-2.5-0.34-5.01,0.97-6.15,3.22C41.55,148.18,42.31,151.19,44.22,153.15z"/>
	<path class="st0" d="M72.19,169.43c1.35,0.58,2.46,1.04,4.39,1.53c1.43,0.37,3.13,0.57,4.61,0.23c3.35-0.79,4.93-4.81,3.02-7.67
		c-0.78-1.16-1.79-1.66-3.21-2.16c-1.14-0.4-1.98-0.71-3.33-1.2c-1-0.37-2.16-0.83-3.08-1c-1.65-0.32-3.39,0.21-4.6,1.38
		C67.15,163.27,68.1,167.68,72.19,169.43z"/>
	<path class="st0" d="M76.83,189.78c0.74,0.21,1.67,0.41,2.59,0.48c1.15,0.09,2.46-0.06,3.51-0.77c2.05-1.38,2.74-4.18,1.56-6.36
		c-0.57-1.06-1.54-1.88-2.68-2.28c-1.04-0.36-2.24-0.75-3.33-0.87c-2.43-0.28-4.74,1.32-5.36,3.68
		C72.4,186.41,74.09,189.02,76.83,189.78z"/>
	<path class="st0" d="M52.95,181.77c1.3,0.81,2.45,1.42,3.89,1.96c1.57,0.59,3.09,1.04,4.6,1.14c3.56,0.24,6.47-3.04,5.83-6.54
		c-0.31-1.7-1.44-3.2-2.98-3.97c-1.22-0.61-2.16-1.08-3.48-1.75c-1.29-0.65-2.63-1.46-4.03-1.83c-1.71-0.46-3.57-0.08-4.96,1
		C48.5,174.35,49.19,179.42,52.95,181.77z"/>
	<path class="st0" d="M27.61,163.15c1.34,1.65,2.68,3.01,4.11,4.27c1.53,1.34,2.57,2.19,4.39,3.31c1.57,0.97,3.39,1.49,5.27,1.13
		c1.92-0.36,3.56-1.73,4.27-3.55c0.79-2.03,0.32-4.39-1.16-5.97c-1.1-1.17-2.09-1.94-3.3-3c-1.51-1.33-2.96-2.65-4.37-4.09
		c-1.27-1.3-2.66-2.29-4.56-2.36c-2.27-0.08-4.44,1.2-5.46,3.23C25.65,158.36,25.86,161.01,27.61,163.15z"/>
	<g>
		<g>
			<g>
				<path class="st0" d="M528.35,102.22c-17.65,0-37.93,6.01-49.94,20.28V21.59c0-0.88-0.72-1.6-1.6-1.6h-46.74
					c-0.88,0-1.6,0.72-1.6,1.6v268.66c0,0.88,0.72,1.6,1.6,1.6h46.74c0.88,0,1.6-0.72,1.6-1.6V183.33
					c-0.19-20.62,11.71-36.83,34.55-36.82c24.03,0.01,34.17,16.92,34.17,37.57v106.17c0,0.88,0.72,1.6,1.6,1.6h46.74
					c0.88,0,1.6-0.72,1.6-1.6V175.45C597.07,134.89,575.29,102.22,528.35,102.22z"/>
				<path class="st0" d="M665.09,15.48c-17.01-0.13-31.03,13.81-31.03,31.16c0,16.52,13.89,30.42,30.79,30.42
					c18.62,0,32.88-16.15,30.54-34.33C693.43,27.51,680.44,15.6,665.09,15.48z"/>
				<path class="st0" d="M688.4,107.1h-46.74c-0.88,0-1.6,0.72-1.6,1.6v181.55c0,0.88,0.72,1.6,1.6,1.6h46.74
					c0.88,0,1.6-0.72,1.6-1.6V108.71C690.01,107.82,689.29,107.1,688.4,107.1z"/>
				<path class="st0" d="M838.16,102.22c-27.41,0-47.69,12.02-55.95,25.16V21.59c0-0.88-0.72-1.6-1.6-1.6h-45.99
					c-0.88,0-1.6,0.72-1.6,1.6v268.66c0,0.88,0.72,1.6,1.6,1.6h45.24c0.88,0,1.6-0.72,1.6-1.6v-20.93
					c9.76,15.77,29.29,27.04,54.82,27.04c52.57,0,87.12-41.68,87.12-97.63C923.4,143.91,892.23,102.22,838.16,102.22z
					 M827.64,252.06c-25.16,0-46.59-19.54-46.59-52.96c0-33.8,21.43-52.58,46.59-52.58c25.53,0,45.81,18.78,45.81,52.58
					S853.18,252.06,827.64,252.06z"/>
				<path class="st0" d="M1222.48,249.09c-3.25,0.59-8.63,1.08-13.51,1.08c-14.27,0-21.78-5.26-21.78-21.4v-77.35h35.57
					c0.89,0,1.6-0.72,1.6-1.6v-41.11c0-0.88-0.72-1.6-1.6-1.6h-35.57v-53.6c0-0.88-0.72-1.6-1.6-1.6h-46.18
					c-0.88,0-1.6,0.72-1.6,1.6l-0.07,53.6h-31.93c-0.89,0-1.6,0.72-1.6,1.6v41.11c0,0.88,0.72,1.6,1.6,1.6h31.82v85.99
					c0,35.67,22.53,57.08,58.58,57.08c13.58,0,22.31-2.26,27.11-4.09c0.64-0.24,1.06-0.85,1.06-1.54v-38.19
					C1224.36,249.68,1223.46,248.91,1222.48,249.09z"/>
				<path class="st0" d="M1639.66,19.99h-46.49c-0.89,0-1.6,0.72-1.6,1.6v103.91c-5.26-9.76-20.28-22.91-52.19-22.91
					c-52.19,0-88.62,42.43-88.62,96.5c0,55.95,37.55,97.26,90.12,97.26c24.78,0,43.56-11.27,51.82-25.91l0.1,19.81
					c0,0.88,0.72,1.59,1.6,1.59h45.26c0.89,0,1.6-0.72,1.6-1.6v-31.82V21.59C1641.26,20.71,1640.54,19.99,1639.66,19.99z
					 M1546.88,252.06c-26.28,0-45.81-19.91-45.81-52.96s20.28-52.21,45.81-52.21c25.53,0,46.02,18.78,46.02,51.83
					C1592.9,232.15,1572.41,252.06,1546.88,252.06z"/>
				<path class="st0" d="M1336.13,101.47c-47.31,0-90.87,38.3-90.87,97.26c0,62.33,44.69,98.76,95.38,98.76
					c37.83,0,64.46-18.49,77.74-43.1c0.44-0.82,0.07-1.85-0.78-2.23l-37.44-16.27c-0.72-0.31-1.55-0.05-1.98,0.62
					c-7.14,11.03-18.92,18.17-37.15,18.17c-24.78,0-45.44-17.65-46.56-42.06h130.68c0.84,0,1.53-0.64,1.6-1.47
					c0.2-2.67,0.65-8.41,0.65-13.93C1427.38,137.9,1393.21,101.47,1336.13,101.47z M1295.58,178.45
					c1.13-16.9,15.4-36.42,41.31-36.42c28.54,0,40.55,18.02,41.31,36.42H1295.58z"/>
				<path class="st0" d="M1037.73,179.43l-26.28-5.63c-10.14-1.88-16.9-6.98-16.9-16c0-10.51,10.51-18.4,23.66-18.4
					c18.02,0,26.37,10.2,29.34,19.97c0.27,0.88,1.24,1.32,2.1,0.99l37.21-14.41c0.8-0.31,1.23-1.19,0.95-2
					c-6.6-19.26-26.14-42.47-69.97-42.47c-39.8,0-69.09,27.41-69.09,60.46c0,25.91,16.15,48.03,51.82,55.92l24.41,5.63
					c14.27,3,19.9,9.04,19.9,17.3c0,9.76-7.88,18.4-24.41,18.4c-20.93,0-31.8-12.48-33.62-26.45c-0.12-0.93-1-1.53-1.92-1.33
					l-39.63,8.69c-0.81,0.18-1.36,0.94-1.25,1.76c2.96,21.19,22.48,55.63,76.8,55.63c48.44,0,71.72-30.79,71.72-60.83
					C1092.55,209.62,1074.15,186.94,1037.73,179.43z"/>
				<path class="st0" d="M399.03,234.67l-40.9-13.63c-0.87-0.29-1.78,0.19-2.07,1.06c-4.6,13.91-17.35,29.58-41.94,29.58
					c-25.53,0-47.31-18.78-47.31-52.2c0-33.42,21.4-51.82,46.94-51.82c21.26,0,32.83,11.61,38.54,24.63
					c0.34,0.77,1.2,1.16,1.99,0.89l41.9-14.46c0.84-0.29,1.3-1.21,1-2.05c-10.2-28.62-38.08-55.2-84.56-55.2
					c-53.7,0-95.75,40.93-95.75,98.01c0,56.7,42.81,98.01,97.26,98.01c48.41,0,77.18-30.54,85.95-60.86
					C400.31,235.81,399.84,234.94,399.03,234.67z"/>
			</g>
		</g>
	</g>
</g>
</svg>
