<svg xmlns="http://www.w3.org/2000/svg" width="30" height="46" viewBox="0 0 30 46">
    <g fill-rule="evenodd">
        <path d="M27.05 24.474c-.17-.352-.406-.86-.775-1.335-.24-.31-.577-.522-.983-.522-.638 0-1.073.474-1.073 1.133 0 .226.075.431.17.622.052.104.15.31.202.416.034.07.032.139-.026.17-.068.04-.132.006-.168-.055-.055-.094-.227-.375-.227-.375-.207-.33-.558-.573-.97-.573-.653 0-1.16.554-1.16 1.216 0 .19.045.369.121.529l.12.258c.034.07.034.14-.024.176-.061.038-.128.002-.164-.055-.044-.07-.135-.21-.182-.277-.195-.28-.508-.448-.86-.448-.58 0-1.06.447-1.06 1.13 0 .213.089.48.184.695.471 1.07.702 2.113.702 3.718 0 3.784-2.891 6.852-6.385 6.852-4.629 0-6.35-3.646-6.68-4.73-.04-.13-.175-.202-.302-.162L.626 35.025c-.128.04-.202.18-.162.31 1.52 5.017 6.367 10.276 13.95 10.276 6.284 0 11.505-4.31 13.42-10.126 1.196-3.632.829-7.67-.785-11.011zM14.27 23.489c-.37 0-.668-.308-.668-.684 0-.38.3-.684.667-.684.37 0 .669.308.669.684 0 .379-.3.684-.668.684zM14.27 17.63c-.37 0-.668-.308-.668-.684 0-.38.3-.684.667-.684.37 0 .669.307.669.683 0 .38-.3.684-.668.684zM14.27 20.56c-.37 0-.668-.308-.668-.684 0-.38.3-.685.667-.685.37 0 .669.308.669.684 0 .38-.3.684-.668.684zM19.534 23.867c-.142-.15-.335-.313-.503-.432-.393-.278-.754-.508-1.187-.712-.277-.131-.408-.2-.75-.298-.254-.074-.496-.106-.725-.009-.359.153-.557.542-.441.966.088.324.344.453.618.588.44.216.657.33 1.03.567.291.183.54.352.835.569.35.256.795.298 1.108.014.354-.321.36-.885.015-1.253zM21.924 22.153c-.449-.47-.956-.874-1.447-1.132-.163-.086-.285-.148-.499-.2-.316-.075-.647.024-.853.28-.224.278-.247.658-.07.97.15.26.346.39.577.56.346.258.586.453.91.733.21.181.388.378.677.418.374.053.75-.149.92-.494.185-.374.071-.836-.215-1.135zM17.738 19.66c-.202-.088-.369-.16-.657-.235-.214-.056-.469-.088-.69-.035-.5.12-.738.737-.451 1.175.116.178.268.255.48.332.17.061.295.108.498.184.15.056.323.126.46.153.248.049.508-.032.689-.21.425-.421.282-1.096-.33-1.364zM17.044 16.543c-.11-.032-.25-.063-.387-.074-.173-.015-.368.01-.525.118-.306.212-.41.64-.233.974.086.162.23.288.4.349.155.056.335.115.499.134.364.042.71-.202.801-.565.107-.42-.146-.82-.555-.936zM20.617 17.77c-.195-.124-.367-.218-.582-.301-.235-.09-.462-.159-.688-.174-.532-.037-.968.465-.873 1.002.046.261.215.49.447.608l.52.268c.192.1.393.223.603.28.256.071.533.013.742-.153.498-.395.394-1.172-.17-1.53zM24.41 20.625c-.2-.252-.4-.46-.614-.653-.229-.205-.385-.335-.657-.508-.234-.148-.506-.228-.788-.173-.287.055-.532.265-.638.544-.118.31-.049.671.174.914.164.179.314.297.494.46.226.204.442.405.654.626.19.199.398.351.683.362.34.013.664-.183.817-.495.169-.343.136-.75-.124-1.077z"/>
        <path d="M1.49 21.138c.17.35.406.859.774 1.334.24.31.577.522.984.522.637 0 1.072-.473 1.072-1.133 0-.226-.074-.43-.17-.622l-.202-.416c-.033-.07-.032-.138.026-.17.068-.04.132-.005.168.055l.227.375c.208.331.559.573.971.573.653 0 1.16-.553 1.16-1.216 0-.19-.045-.368-.121-.528-.031-.064-.09-.194-.12-.258-.034-.07-.035-.14.024-.177.06-.038.127-.001.163.055.045.07.135.21.182.277.196.28.509.448.86.448.58 0 1.061-.447 1.061-1.13 0-.213-.09-.48-.184-.695-.472-1.07-.702-2.113-.702-3.718 0-3.784 2.89-6.851 6.385-6.851 4.628 0 6.35 3.645 6.68 4.73.04.13.175.202.302.162l6.883-2.17c.128-.04.202-.178.163-.31C26.556 5.26 21.708 0 14.126 0 7.841 0 2.62 4.31.704 10.127c-1.196 3.63-.828 7.67.785 11.01zM14.27 27.984c.37 0 .668.308.668.684 0 .38-.3.684-.668.684-.37 0-.668-.307-.668-.683 0-.38.3-.685.667-.685zM14.27 25.055c.37 0 .668.307.668.683 0 .38-.3.684-.668.684-.37 0-.668-.307-.668-.683 0-.38.3-.684.667-.684zM9.005 21.746c.142.15.334.313.503.432.392.278.754.508 1.187.712.277.13.407.2.749.298.254.074.496.106.726.009.358-.153.557-.542.441-.966-.088-.324-.344-.453-.618-.588-.44-.216-.658-.331-1.03-.567-.292-.183-.54-.352-.835-.569-.351-.256-.795-.298-1.108-.014-.354.32-.36.885-.015 1.253zM6.618 23.458c.449.47.956.874 1.447 1.132.163.086.285.147.499.199.316.076.647-.023.853-.28.224-.277.247-.657.07-.969-.15-.26-.346-.39-.577-.561-.346-.257-.586-.453-.91-.732-.21-.182-.388-.378-.677-.418-.374-.053-.75.148-.92.494-.185.374-.072.835.215 1.135zM10.8 25.951c.202.089.369.16.657.235.214.056.469.088.69.035.5-.12.737-.737.45-1.175-.115-.177-.268-.255-.479-.331l-.498-.184c-.15-.057-.323-.127-.46-.154-.248-.048-.508.032-.689.21-.425.422-.283 1.096.329 1.364zM11.494 29.068c.11.032.25.063.387.074.173.015.368-.01.525-.118.306-.212.41-.64.233-.974-.086-.162-.23-.288-.4-.35-.155-.055-.335-.114-.499-.133-.364-.042-.71.202-.802.565-.106.42.147.82.556.936zM7.923 27.843c.194.124.366.217.581.3.235.09.463.159.689.174.531.037.967-.465.872-1.002-.046-.261-.215-.49-.446-.608l-.52-.268c-.193-.1-.394-.223-.604-.28-.255-.071-.533-.013-.742.153-.497.395-.393 1.172.17 1.53zM4.131 24.99c.2.253.4.461.615.654.229.205.385.335.656.507.235.15.507.228.788.174.288-.055.533-.265.639-.544.117-.31.048-.672-.174-.914-.164-.18-.314-.297-.494-.46-.226-.205-.443-.406-.654-.626-.19-.199-.398-.352-.683-.362-.34-.013-.664.183-.817.494-.17.344-.136.75.124 1.077z"/>
    </g>
</svg>
