<svg width="40" height="40" viewBox="0 0 40 40" fill="none" xmlns="http://www.w3.org/2000/svg">
<rect width="40" height="40" fill="#F94F55"/>
<path d="M31.9998 14.4673C31.9971 14.754 31.9097 15.0335 31.7485 15.2707C31.5874 15.5078 31.3597 15.6919 31.0941 15.8C30.8285 15.908 30.5369 15.9351 30.256 15.8778C29.975 15.8205 29.7173 15.6814 29.5152 15.4781C29.3132 15.2747 29.1758 15.0161 29.1203 14.7348C29.0648 14.4535 29.0938 14.1621 29.2035 13.8972C29.3133 13.6323 29.4989 13.4058 29.7371 13.2462C29.9752 13.0865 30.2553 13.0009 30.542 13C30.7347 12.9985 30.9257 13.0354 31.1039 13.1087C31.2821 13.182 31.4439 13.2902 31.5797 13.4269C31.7155 13.5636 31.8226 13.726 31.8948 13.9047C31.9669 14.0834 32.0027 14.2747 31.9998 14.4673ZM18.2457 16.9276C15.8139 16.9276 14.0202 18.6898 14.0202 21.0501C14.0202 23.4105 15.8139 25.1726 18.2457 25.1726C20.6857 25.1726 22.4874 23.4105 22.4874 21.0501C22.4874 18.6898 20.6857 16.9276 18.2457 16.9276ZM18.2457 18.8919C19.4334 18.8919 20.3302 19.781 20.3302 21.0501C20.3302 22.3192 19.4334 23.2084 18.2457 23.2084C17.0581 23.2084 16.1694 22.3192 16.1694 21.0501C16.1694 19.781 17.0581 18.8919 18.2457 18.8919ZM27.495 16.9276C26.5335 16.9276 25.7822 17.259 25.2893 17.9946V17.1378H23.2452V24.9705H25.3539V20.7025C25.3539 19.5385 26.2631 19.0131 27.348 19.0131C28.2549 19.0131 28.5938 19.1909 28.5938 19.1909V17.1378C28.2453 16.9947 27.8716 16.9232 27.495 16.9276H27.495ZM31.6085 17.1378H29.4998V24.9705H31.6085V17.1378ZM13.4554 17.1378H10.6196V15.028H8.51085V17.1378H7V19.0131H8.51085V22.0444C8.51085 24.0733 9.50461 25.1726 11.4437 25.1726C12.3933 25.1778 13.3194 24.8772 14.085 24.3154L13.2005 22.7357C12.7723 22.9944 12.292 23.2084 11.7911 23.2084C11.1366 23.2084 10.6196 22.8527 10.6196 21.8746V19.0131H13.4554L13.4554 17.1378Z" fill="white"/>
</svg>
